<svg id="svg" version="1.1" xmlns="http://www.w3.org/2000/svg" xmlns:xlink="http://www.w3.org/1999/xlink" width="400" height="400" viewBox="0, 0, 400,400"><g id="svgg"><path id="path0" d="M112.156 21.875 C 95.158 33.906,64.375 43.750,43.750 43.750 C 1.551 43.750,-7.342 101.874,22.711 181.250 C 30.520 201.875,40.298 240.850,44.440 267.861 C 59.555 366.423,213.087 454.505,233.527 376.341 C 237.132 362.559,254.907 349.644,276.107 345.404 C 296.123 341.400,312.500 330.785,312.500 321.813 C 312.500 312.842,332.482 286.653,356.905 263.617 C 408.550 214.904,410.876 173.790,362.626 162.479 C 341.626 157.556,336.544 152.067,347.001 145.603 C 376.623 127.296,366.462 58.548,335.337 66.688 C 316.344 71.654,295.533 62.693,266.152 36.895 C 217.307 -5.991,159.494 -11.630,112.156 21.875 " stroke="none" fill="#000000" fill-rule="evenodd"></path></g></svg>